<svg width="157" viewBox="0 0 157 32" fill="none" xmlns="http://www.w3.org/2000/svg" aria-labelledby="airbnbOrg.site.nav.logo" active-element=""><title id="airbnbOrg.site.nav.logo">Airbnb.org logo</title><path d="M138.038 7.24368C137.944 7.19784 137.803 7.19784 137.709 7.15199C137.381 7.10615 137.053 7.0603 136.724 7.0603C135.693 7.0603 134.754 7.28953 134.004 7.79383C133.207 8.29813 132.597 9.03165 132.175 9.94856L131.987 7.28953H127.531V24.9858H132.315V16.321C132.315 14.854 132.691 13.7537 133.394 12.9743C134.098 12.195 135.13 11.7824 136.443 11.7824C136.724 11.7824 137.006 11.7824 137.24 11.8282C137.522 11.8741 137.756 11.9199 137.991 12.0116V7.24368H138.038Z" fill="#61E212" class=""></path><path d="M146.856 24.5273C145.73 24.5273 144.698 24.298 143.713 23.8396C142.728 23.3811 141.884 22.7852 141.18 21.9599C140.477 21.1806 139.914 20.2178 139.492 19.1634C139.069 18.1089 138.882 16.9628 138.882 15.725C138.882 14.4413 139.069 13.2952 139.492 12.1949C139.914 11.0946 140.477 10.1777 141.227 9.35249C141.977 8.57312 142.869 7.93129 143.854 7.47283C144.839 7.01438 145.917 6.78516 147.09 6.78516C148.216 6.78516 149.248 7.01438 150.186 7.47283C151.124 7.93129 151.874 8.57312 152.484 9.44418L152.578 7.28945H156.94V22.8768C156.94 24.2522 156.705 25.49 156.283 26.5903C155.861 27.6906 155.204 28.6534 154.407 29.4786C153.61 30.3038 152.625 30.8998 151.546 31.3582C150.42 31.7708 149.201 32.0001 147.84 32.0001C146.527 32.0001 145.308 31.7708 144.276 31.3582C143.197 30.9456 142.306 30.3496 141.508 29.6161C140.711 28.8826 140.101 28.0115 139.632 27.0488L144.135 25.9485C144.557 26.5903 145.073 27.0946 145.683 27.4614C146.34 27.8281 147.043 28.0115 147.84 28.0115C148.732 28.0115 149.482 27.8281 150.092 27.4155C150.749 27.0029 151.218 26.4986 151.593 25.7651C151.968 25.0774 152.109 24.2522 152.109 23.2895V21.8683C151.499 22.6935 150.749 23.2895 149.81 23.7479C148.966 24.298 147.934 24.5273 146.856 24.5273ZM147.981 20.3554C148.825 20.3554 149.529 20.172 150.186 19.7594C150.842 19.3468 151.358 18.7966 151.734 18.0631C152.109 17.3754 152.296 16.5502 152.296 15.6791C152.296 14.8081 152.109 13.9829 151.734 13.2952C151.358 12.6075 150.842 12.0115 150.186 11.5989C149.529 11.1863 148.825 11.0029 147.981 11.0029C147.137 11.0029 146.433 11.1863 145.777 11.5989C145.12 12.0115 144.604 12.5617 144.229 13.2952C143.854 13.9829 143.666 14.8081 143.666 15.6791C143.666 16.5502 143.854 17.3754 144.229 18.0631C144.604 18.7508 145.12 19.3468 145.777 19.7594C146.433 20.172 147.137 20.3554 147.981 20.3554Z" fill="#61E212" class=""></path><path d="M116.227 25.5358C114.914 25.5358 113.695 25.3066 112.569 24.8481C111.443 24.3897 110.458 23.7478 109.614 22.8768C108.77 22.0516 108.113 21.043 107.691 19.8968C107.222 18.7507 106.987 17.5129 106.987 16.1834C106.987 14.8539 107.222 13.616 107.691 12.4699C108.16 11.3238 108.817 10.361 109.661 9.48996C110.505 8.66474 111.49 7.97706 112.616 7.51861C113.741 7.06016 115.008 6.83093 116.321 6.83093C117.635 6.83093 118.854 7.06016 119.98 7.51861C121.105 7.97706 122.09 8.6189 122.935 9.48996C123.779 10.3152 124.436 11.3238 124.858 12.4241C125.28 13.5243 125.561 14.7622 125.561 16.1375C125.561 17.467 125.327 18.7049 124.858 19.851C124.389 20.9971 123.732 22.0057 122.888 22.8309C122.043 23.702 121.058 24.3438 119.933 24.8023C118.854 25.2607 117.588 25.5358 116.227 25.5358ZM116.321 21.2722C117.165 21.2722 117.916 21.043 118.619 20.5845C119.276 20.1261 119.839 19.5301 120.214 18.7507C120.589 17.9713 120.824 17.1003 120.824 16.1375C120.824 15.1748 120.636 14.2579 120.214 13.5243C119.839 12.745 119.276 12.149 118.619 11.6905C117.963 11.2321 117.165 11.0029 116.321 11.0029C115.477 11.0029 114.726 11.2321 114.023 11.6905C113.366 12.149 112.803 12.745 112.428 13.5243C112.053 14.3037 111.818 15.1748 111.818 16.1375C111.818 17.1003 112.006 18.0172 112.428 18.7507C112.803 19.5301 113.366 20.1261 114.023 20.5845C114.68 21.0888 115.477 21.2722 116.321 21.2722Z" fill="#61E212" class=""></path><path d="M103 25.1232C102.437 25.1232 101.921 24.9857 101.499 24.7106C101.077 24.4355 100.702 24.0688 100.42 23.6561C100.139 23.1977 99.998 22.7392 99.998 22.1891C99.998 21.639 100.139 21.1805 100.42 20.7221C100.702 20.2636 101.03 19.8968 101.499 19.6676C101.921 19.3925 102.437 19.255 103 19.255C103.563 19.255 104.079 19.3925 104.501 19.6676C104.923 19.9427 105.298 20.3094 105.58 20.7221C105.861 21.1805 106.002 21.639 106.002 22.1891C106.002 22.7392 105.861 23.1977 105.58 23.6561C105.298 24.1146 104.97 24.4814 104.501 24.7106C104.079 25.0315 103.563 25.1232 103 25.1232Z" fill="#61E212"></path><path d="M80.2061 25.169V0.18335H84.9903V9.71917C85.6469 8.84811 86.4443 8.20627 87.3824 7.70197C88.3673 7.19768 89.4461 6.96845 90.5718 6.96845C91.7444 6.96845 92.8701 7.19768 93.8551 7.65613C94.8401 8.11458 95.7313 8.80226 96.4817 9.62748C97.2322 10.4527 97.842 11.4613 98.2641 12.5616C98.6862 13.6619 98.8738 14.8997 98.8738 16.2292C98.8738 17.5587 98.6393 18.7965 98.2172 19.9427C97.795 21.0888 97.1853 22.0974 96.3879 22.9226C95.5906 23.7937 94.6994 24.4355 93.6206 24.9398C92.5887 25.3982 91.4161 25.6733 90.2435 25.6733C89.0709 25.6733 87.9921 25.4441 87.0071 24.9398C86.0691 24.4355 85.2717 23.7478 84.6619 22.8768L84.5212 25.2149H80.2061V25.169ZM89.493 21.4556C90.3842 21.4556 91.1347 21.2263 91.8382 20.7679C92.5418 20.3094 93.0577 19.7134 93.4799 18.9341C93.902 18.1547 94.0896 17.2836 94.0896 16.3209C94.0896 15.3581 93.902 14.4412 93.4799 13.7077C93.0577 12.9283 92.5418 12.3323 91.8382 11.8739C91.1347 11.4154 90.3842 11.1862 89.493 11.1862C88.6019 11.1862 87.8514 11.4154 87.1478 11.8739C86.4443 12.3323 85.9283 12.9283 85.5062 13.7077C85.0841 14.4871 84.8965 15.3581 84.8965 16.3209C84.8965 17.2836 85.0841 18.2005 85.5062 18.9341C85.9283 19.7134 86.4443 20.3094 87.1478 20.7679C87.8514 21.2263 88.6019 21.4556 89.493 21.4556Z" fill="#FFFFFF" class=""></path><path d="M61.3037 25.169V7.47273H65.7127L65.8534 9.765C66.3693 8.89394 67.1198 8.2521 68.011 7.74781C68.9491 7.24351 69.9809 7.01428 71.2004 7.01428C72.5138 7.01428 73.6864 7.3352 74.6713 7.93119C75.6563 8.52718 76.4537 9.44408 76.9696 10.5444C77.5325 11.6905 77.8139 13.02 77.8139 14.5788V25.2149H73.0297V15.1747C73.0297 13.9369 72.7483 12.9742 72.1854 12.2865C71.6226 11.5988 70.8252 11.232 69.8402 11.232C69.0898 11.232 68.48 11.4154 67.9172 11.7363C67.3543 12.0573 66.9322 12.5157 66.6039 13.1117C66.2755 13.7077 66.1348 14.3495 66.1348 15.0831V25.2607H61.3037V25.169Z" fill="#FFFFFF"></path><path d="M40.6191 25.169V0.18335H45.4503V9.71917C46.1069 8.84811 46.9043 8.20627 47.8893 7.70197C48.8742 7.19768 49.9061 6.96845 51.0787 6.96845C52.2513 6.96845 53.377 7.19768 54.362 7.65613C55.347 8.11458 56.2382 8.80226 56.9886 9.62748C57.7391 10.4527 58.3489 11.4613 58.771 12.5616C59.1931 13.6619 59.4276 14.8997 59.4276 16.2292C59.4276 17.5587 59.1931 18.7965 58.771 19.9427C58.3489 21.0888 57.7391 22.0974 56.9417 22.9226C56.1444 23.7937 55.2532 24.4355 54.1744 24.9398C53.1425 25.3982 51.9699 25.6733 50.7973 25.6733C49.6247 25.6733 48.5459 25.4441 47.5609 24.9398C46.5759 24.4355 45.8255 23.7478 45.1688 22.8768L45.0281 25.2149H40.6191V25.169ZM49.9061 21.4556C50.7504 21.4556 51.5478 21.2263 52.2513 20.7679C52.9549 20.3094 53.4708 19.7134 53.893 18.9341C54.3151 18.1547 54.5027 17.2836 54.5027 16.3209C54.5027 15.3581 54.3151 14.4412 53.893 13.7077C53.4708 12.9283 52.9549 12.3323 52.2513 11.8739C51.5478 11.4154 50.7973 11.1862 49.9061 11.1862C49.015 11.1862 48.2645 11.4154 47.5609 11.8739C46.8574 12.3323 46.3414 12.9283 45.9193 13.7077C45.4972 14.4871 45.3095 15.3581 45.3095 16.3209C45.3095 17.2836 45.4972 18.2005 45.9193 18.9341C46.3414 19.7134 46.8574 20.3094 47.5609 20.7679C48.2645 21.2263 49.0619 21.4556 49.9061 21.4556Z" fill="#FFFFFF"></path><path d="M38.695 7.38114C38.6012 7.33529 38.4604 7.33529 38.3666 7.28944C38.0383 7.2436 37.71 7.19775 37.3817 7.19775C36.3498 7.19775 35.4117 7.42698 34.6143 7.93128C33.817 8.43558 33.2072 9.1691 32.7851 10.086L32.5974 7.38114H28.1885V25.0774H32.9727V16.5043C32.9727 15.0373 33.3479 13.937 34.0515 13.1118C34.755 12.3324 35.7869 11.9198 37.1002 11.9198C37.3817 11.9198 37.6631 11.9198 37.8976 11.9657C38.179 12.0115 38.4135 12.0574 38.6481 12.149V7.38114H38.695Z" fill="#FFFFFF"></path><path d="M26.2192 2.70487C26.2192 3.20917 26.0785 3.66762 25.844 4.08023C25.6095 4.49284 25.2812 4.81375 24.859 5.04298C24.4369 5.27221 23.9678 5.40974 23.4519 5.40974C22.936 5.40974 22.4669 5.27221 22.0448 5.04298C21.6226 4.81375 21.2943 4.49284 21.0598 4.08023C20.8253 3.66762 20.6846 3.20917 20.6846 2.70487C20.6846 2.20057 20.8253 1.74212 21.0598 1.32951C21.2943 0.916905 21.6226 0.595989 22.0448 0.366762C22.5138 0.137536 22.936 0 23.4519 0C23.9678 0 24.4369 0.137536 24.859 0.366762C25.2812 0.595989 25.6095 0.916905 25.844 1.32951C26.0785 1.69628 26.2192 2.15473 26.2192 2.70487ZM21.0598 7.47278H25.844V25.1691H21.0598V7.47278Z" fill="#FFFFFF"></path><path d="M8.302 25.6734C7.1294 25.6734 6.00371 25.4441 5.01872 24.9857C4.03374 24.5272 3.14257 23.8396 2.3921 23.0143C1.64164 22.1891 1.03189 21.1805 0.609751 20.0803C0.187616 18.98 0 17.7421 0 16.4126C0 15.0831 0.23452 13.8453 0.656655 12.6992C1.07879 11.553 1.68854 10.5444 2.48591 9.71922C3.28328 8.84816 4.17445 8.20633 5.25324 7.70203C6.28513 7.24358 7.45773 6.96851 8.63033 6.96851C9.80293 6.96851 10.8817 7.19773 11.8667 7.70203C12.8517 8.20633 13.6021 8.89401 14.2119 9.76507L14.3526 7.4728H18.7147V25.1691H14.3057L14.165 22.6017C13.5552 23.5645 12.711 24.298 11.6791 24.8482C10.6472 25.3983 9.5215 25.6734 8.302 25.6734ZM9.4277 21.4556C10.3189 21.4556 11.0693 21.2264 11.7729 20.7679C12.4765 20.3095 12.9924 19.7135 13.4145 18.9341C13.8367 18.1548 14.0243 17.2837 14.0243 16.3209C14.0243 15.3582 13.8367 14.4413 13.4145 13.7078C12.9924 12.9284 12.4765 12.3324 11.7729 11.8739C11.0693 11.4155 10.3189 11.1863 9.4277 11.1863C8.53652 11.1863 7.78606 11.4155 7.0825 11.8739C6.37894 12.3324 5.86299 12.9284 5.44086 13.7078C5.01872 14.4871 4.83111 15.3582 4.83111 16.3209C4.83111 17.2837 5.01872 18.2006 5.44086 18.9341C5.86299 19.7135 6.37894 20.3095 7.0825 20.7679C7.78606 21.2264 8.53652 21.4556 9.4277 21.4556Z" fill="#FFFFFF"></path></svg>