<svg width="142" viewBox="0 0 142 32" fill="none" xmlns="http://www.w3.org/2000/svg" role="img" aria-labelledby="airbnbOrg.site.footer.logo"><title id="airbnbOrg.site.footer.logo">Airbnb.org logo</title><path d="M27.6776 25.857C27.4269 27.5181 26.3299 28.9598 24.7628 29.5867C24.0106 29.9001 23.1643 29.9941 22.3181 29.9001C21.5032 29.8061 20.6883 29.524 19.8734 29.0539C18.7138 28.3957 17.5541 27.3928 16.2378 25.951C18.3377 23.3497 19.654 20.9677 20.1242 18.8678C20.3436 17.8962 20.4062 16.9873 20.2495 16.141C20.1242 15.3262 19.8421 14.6053 19.4033 13.9471C18.4317 12.5054 16.7392 11.6592 14.8901 11.6592C13.0409 11.6592 11.3484 12.5367 10.3768 13.9471C9.93802 14.5739 9.65594 15.3262 9.53058 16.141C9.40521 16.9873 9.43655 17.8962 9.65594 18.8678C10.1261 20.999 11.4424 23.381 13.5424 25.951C12.226 27.4241 11.0663 28.427 9.90668 29.0539C9.06045 29.524 8.2769 29.8061 7.46201 29.9001C6.61577 29.9941 5.76954 29.9001 5.01733 29.5867C3.45023 28.9598 2.35326 27.5181 2.10253 25.857C1.97716 25.0421 2.07118 24.2586 2.3846 23.381C2.50997 23.0676 2.63534 22.7542 2.79205 22.3781C3.01144 21.8452 3.26218 21.3124 3.51291 20.7796L3.54426 20.7169C5.7382 15.953 8.12019 11.095 10.5649 6.33105L10.6589 6.143C10.9096 5.64153 11.1604 5.14006 11.4424 4.66993C11.7245 4.16846 11.9753 3.66699 12.3514 3.25955C13.0095 2.476 13.9185 2.06856 14.8901 2.06856C15.8617 2.06856 16.7706 2.476 17.4288 3.25955C17.7735 3.66699 18.0556 4.16846 18.3377 4.66993C18.5884 5.14006 18.8705 5.64153 19.0899 6.143L19.1839 6.36239C21.6599 11.1263 24.0106 15.9843 26.2045 20.7483L26.2359 20.7796C26.4866 21.3124 26.7373 21.8452 26.9567 22.4094C27.1134 22.7855 27.2701 23.0989 27.3642 23.4123C27.7089 24.2586 27.803 25.0421 27.6776 25.857ZM14.8901 24.3839C13.1662 22.19 12.0379 20.1528 11.6618 18.429C11.5051 17.7081 11.4738 17.0499 11.5365 16.4545C11.6305 15.953 11.7872 15.5142 12.0693 15.1068C12.6648 14.2292 13.7304 13.7277 14.8901 13.7277C16.0497 13.7277 17.1153 14.2605 17.7108 15.1068C17.9616 15.4829 18.1496 15.953 18.2123 16.4545C18.3063 17.0499 18.275 17.7081 18.0869 18.429C17.7422 20.1214 16.6139 22.19 14.8901 24.3839ZM29.3387 22.7228C29.182 22.3154 29.0253 21.9393 28.8686 21.5632C28.6178 20.999 28.3671 20.4662 28.1164 19.9021L28.085 19.8707C25.8911 15.0441 23.5091 10.1861 21.0331 5.39079L20.9391 5.1714C20.6883 4.66993 20.4376 4.16846 20.1555 3.66699C19.8421 3.0715 19.4973 2.476 18.9959 1.91185C17.9302 0.68952 16.4885 0 14.8901 0C13.2916 0 11.8499 0.68952 10.7843 1.91185C10.2828 2.476 9.93802 3.10284 9.6246 3.66699C9.34253 4.16846 9.09179 4.66993 8.84105 5.1714L8.74703 5.35945C6.27101 10.1861 3.92036 15.0441 1.69508 19.8707L1.66374 19.9334C1.413 20.4662 1.16227 20.999 0.91153 21.5632C0.75482 21.9079 0.59811 22.3154 0.4414 22.7228C0.0339538 23.9138 -0.0914141 25.0421 0.0652958 26.1704C0.410058 28.5524 2.0085 30.5896 4.23378 31.4985C5.04867 31.8433 5.95759 32 6.83517 32C7.11724 32 7.39932 31.9687 7.6814 31.9373C8.74703 31.8119 9.844 31.4358 10.9096 30.8404C12.1946 30.1195 13.4797 29.0539 14.8901 27.5181C16.3004 29.0539 17.5855 30.1195 18.8705 30.8404C19.9361 31.4358 21.0017 31.8119 22.0987 31.9373C22.3808 31.9687 22.6629 32 22.9449 32C23.8539 32 24.7314 31.8433 25.5463 31.4985C27.7716 30.5896 29.3701 28.5524 29.7148 26.1704C29.8715 25.0108 29.7462 23.8825 29.3387 22.7228Z" fill="#FFFFFF"></path><path d="M41.8132 24.1647C41.0296 24.1647 40.2774 24.008 39.6192 23.6945C38.961 23.3811 38.3655 22.911 37.8641 22.3468C37.3626 21.7827 36.9551 21.0932 36.6731 20.341C36.391 19.5888 36.2656 18.7425 36.2656 17.8336C36.2656 16.9247 36.4223 16.0785 36.7044 15.2949C36.9865 14.5114 37.3939 13.8219 37.9268 13.2577C38.4596 12.6622 39.0551 12.2234 39.7759 11.8787C40.4655 11.5652 41.249 11.3772 42.0326 11.3772C42.8161 11.3772 43.537 11.5339 44.1951 11.8787C44.8533 12.2234 45.3548 12.6936 45.7622 13.289L45.8563 11.722H48.8024V23.8199H45.8563L45.7622 22.0648C45.3548 22.7229 44.7906 23.2244 44.1011 23.6005C43.3803 23.9766 42.628 24.1647 41.8132 24.1647ZM42.5654 21.2812C43.1609 21.2812 43.6623 21.1245 44.1325 20.8111C44.6026 20.4977 44.9474 20.0902 45.2294 19.5574C45.5115 19.0246 45.6369 18.4291 45.6369 17.7709C45.6369 17.1128 45.5115 16.4859 45.2294 15.9844C44.9474 15.4516 44.6026 15.0442 44.1325 14.7308C43.6623 14.4174 43.1609 14.2606 42.5654 14.2606C41.9699 14.2606 41.4684 14.4174 40.9983 14.7308C40.5281 15.0442 40.1834 15.4516 39.9013 15.9844C39.6192 16.5173 39.4939 17.1128 39.4939 17.7709C39.4939 18.4291 39.6192 19.0559 39.9013 19.5574C40.1834 20.0902 40.5281 20.4977 40.9983 20.8111C41.4684 21.1245 42.0012 21.2812 42.5654 21.2812Z" fill="#FFFFFF"></path><path d="M53.7862 8.46245C53.7862 8.80721 53.6922 9.12063 53.5355 9.4027C53.3788 9.68478 53.1594 9.90417 52.8773 10.0609C52.5952 10.2176 52.2818 10.3116 51.9371 10.3116C51.5923 10.3116 51.2789 10.2176 50.9968 10.0609C50.7147 9.90417 50.4953 9.68478 50.3386 9.4027C50.1819 9.12063 50.0879 8.80721 50.0879 8.46245C50.0879 8.11769 50.1819 7.80427 50.3386 7.52219C50.4953 7.24012 50.7147 7.02072 50.9968 6.86402C51.2789 6.70731 51.5923 6.61328 51.9371 6.61328C52.2818 6.61328 52.5952 6.70731 52.8773 6.86402C53.1594 7.02072 53.3788 7.24012 53.5355 7.52219C53.6922 7.77293 53.7862 8.08635 53.7862 8.46245ZM50.3386 11.722H53.5355V23.8199H50.3386V11.722Z" fill="#FFFFFF"></path><path d="M62.1222 11.6908C62.0595 11.6595 61.9655 11.6595 61.9028 11.6281C61.6834 11.5968 61.464 11.5654 61.2446 11.5654C60.5551 11.5654 59.9282 11.7221 59.3954 12.0669C58.8626 12.4117 58.4552 12.9131 58.1731 13.54L58.0477 11.6908H55.1016V23.8201H58.2985V17.8965C58.2985 16.8935 58.5492 16.1413 59.0193 15.5772C59.4895 15.0444 60.179 14.7623 61.0566 14.7623C61.2446 14.7623 61.4327 14.7623 61.5894 14.7936C61.7774 14.825 61.9341 14.8563 62.0908 14.919V11.6908H62.1222Z" fill="#FFFFFF"></path><path d="M63.4082 23.8201V6.73877H66.6051V13.2579C67.0439 12.6624 67.5767 12.2236 68.2349 11.8788C68.893 11.5341 69.5826 11.3774 70.3661 11.3774C71.1497 11.3774 71.9019 11.5341 72.56 11.8475C73.2182 12.1609 73.8137 12.631 74.3152 13.1952C74.8167 13.7593 75.2241 14.4489 75.5062 15.2011C75.7883 15.9533 75.945 16.7995 75.945 17.7084C75.945 18.6173 75.7883 19.4635 75.5062 20.2471C75.2241 21.0306 74.8167 21.7202 74.2839 22.2843C73.751 22.8798 73.1555 23.3186 72.4347 23.6634C71.7452 23.9768 70.9616 24.1648 70.1781 24.1648C69.3945 24.1648 68.6736 24.0081 68.0155 23.6634C67.3573 23.3186 66.8558 22.8485 66.417 22.253L66.323 23.8514H63.4082V23.8201ZM69.6452 21.2814C70.2094 21.2814 70.7422 21.1247 71.2123 20.8112C71.6825 20.4978 72.0272 20.0904 72.3093 19.5576C72.5914 19.0248 72.7168 18.4293 72.7168 17.7711C72.7168 17.1129 72.5914 16.4861 72.3093 15.9846C72.0272 15.4518 71.6825 15.0444 71.2123 14.7309C70.7422 14.4175 70.2407 14.2608 69.6452 14.2608C69.0497 14.2608 68.5483 14.4175 68.0781 14.7309C67.608 15.0444 67.2633 15.4518 66.9812 15.9846C66.6991 16.5174 66.5737 17.1129 66.5737 17.7711C66.5737 18.4293 66.6991 19.0561 66.9812 19.5576C67.2633 20.0904 67.608 20.4978 68.0781 20.8112C68.5483 21.1247 69.0497 21.2814 69.6452 21.2814Z" fill="#FFFFFF"></path><path d="M77.2305 23.82V11.7221H80.1766L80.2706 13.2892C80.6154 12.6937 81.1169 12.2549 81.7124 11.9102C82.3392 11.5654 83.0287 11.4087 83.8436 11.4087C84.7212 11.4087 85.5048 11.6281 86.1629 12.0355C86.8211 12.443 87.3539 13.0698 87.6987 13.822C88.0748 14.6056 88.2628 15.5145 88.2628 16.5801V23.82H85.066V16.9875C85.066 16.1413 84.8779 15.4831 84.5018 15.013C84.1257 14.5429 83.5929 14.2921 82.9347 14.2921C82.4332 14.2921 82.0258 14.4175 81.6497 14.6369C81.2736 14.8563 80.9915 15.1697 80.7721 15.5772C80.5527 15.9846 80.4587 16.4234 80.4587 16.9248V23.82H77.2305Z" fill="#FFFFFF"></path><path d="M89.8613 23.8201V6.73877H93.0582V13.2579C93.497 12.6624 94.0298 12.2236 94.6566 11.8788C95.3148 11.5341 96.0357 11.3774 96.7879 11.3774C97.5714 11.3774 98.3236 11.5341 98.9818 11.8475C99.64 12.1609 100.235 12.631 100.737 13.1952C101.238 13.7593 101.646 14.4489 101.928 15.2011C102.21 15.9533 102.335 16.7995 102.335 17.7084C102.335 18.6173 102.179 19.4635 101.897 20.2471C101.615 21.0306 101.207 21.7202 100.674 22.2843C100.141 22.8798 99.546 23.3186 98.8251 23.6634C98.1356 23.9768 97.352 24.1648 96.5685 24.1648C95.7849 24.1648 95.0641 24.0081 94.4059 23.6634C93.7791 23.3186 93.2463 22.8485 92.8388 22.253L92.7448 23.8514H89.8613V23.8201ZM96.067 21.2814C96.6625 21.2814 97.164 21.1247 97.6341 20.8112C98.1042 20.4978 98.449 20.0904 98.7311 19.5576C99.0132 19.0248 99.1385 18.4293 99.1385 17.7711C99.1385 17.1129 99.0132 16.4861 98.7311 15.9846C98.449 15.4518 98.1042 15.0444 97.6341 14.7309C97.164 14.4175 96.6625 14.2608 96.067 14.2608C95.4715 14.2608 94.9701 14.4175 94.4999 14.7309C94.0298 15.0444 93.685 15.4518 93.403 15.9846C93.1209 16.5174 92.9955 17.1129 92.9955 17.7711C92.9955 18.4293 93.1209 19.0561 93.403 19.5576C93.685 20.0904 94.0298 20.4978 94.4999 20.8112C94.9701 21.1247 95.5029 21.2814 96.067 21.2814Z" fill="#FFFFFF"></path><path d="M105.125 23.8196C104.749 23.8196 104.404 23.7256 104.122 23.5375C103.84 23.3495 103.589 23.0988 103.401 22.8167C103.213 22.5033 103.119 22.1898 103.119 21.8137C103.119 21.4376 103.213 21.1242 103.401 20.8108C103.589 20.4974 103.809 20.2466 104.122 20.0899C104.404 19.9019 104.749 19.8079 105.125 19.8079C105.501 19.8079 105.846 19.9019 106.128 20.0899C106.41 20.278 106.661 20.5287 106.849 20.8108C107.037 21.1242 107.131 21.4376 107.131 21.8137C107.131 22.1898 107.037 22.5033 106.849 22.8167C106.661 23.1301 106.441 23.3808 106.128 23.5375C105.815 23.7256 105.501 23.8196 105.125 23.8196Z" fill="#61E212"></path><path d="M113.963 24.0704C113.086 24.0704 112.271 23.9137 111.519 23.6003C110.767 23.2869 110.108 22.8481 109.544 22.2526C108.98 21.6884 108.541 20.9989 108.259 20.2154C107.946 19.4318 107.789 18.5856 107.789 17.6767C107.789 16.7678 107.946 15.9215 108.259 15.138C108.573 14.3545 109.011 13.6963 109.576 13.1008C110.14 12.5366 110.798 12.0665 111.55 11.7531C112.302 11.4397 113.149 11.283 114.026 11.283C114.904 11.283 115.719 11.4397 116.471 11.7531C117.223 12.0665 117.881 12.5053 118.445 13.1008C119.009 13.6649 119.448 14.3545 119.73 15.1067C120.012 15.8589 120.2 16.7051 120.2 17.6453C120.2 18.5543 120.044 19.4005 119.73 20.184C119.417 20.9676 118.978 21.6571 118.414 22.2213C117.85 22.8168 117.192 23.2555 116.439 23.569C115.687 23.9137 114.841 24.0704 113.963 24.0704ZM113.995 21.187C114.559 21.187 115.06 21.0303 115.531 20.7168C115.969 20.4034 116.345 19.996 116.596 19.4632C116.847 18.9304 117.004 18.3349 117.004 17.6767C117.004 17.0185 116.878 16.3917 116.596 15.8902C116.345 15.3574 115.969 14.95 115.531 14.6365C115.092 14.3231 114.559 14.1664 113.995 14.1664C113.431 14.1664 112.929 14.3231 112.459 14.6365C111.989 14.95 111.644 15.3574 111.393 15.8902C111.143 16.423 110.986 17.0185 110.986 17.6767C110.986 18.3349 111.111 18.9617 111.393 19.4632C111.644 19.996 112.02 20.4034 112.459 20.7168C112.929 21.0303 113.431 21.187 113.995 21.187Z" fill="#61E212"></path><path d="M128.507 11.5653C128.444 11.534 128.35 11.534 128.287 11.5026C128.068 11.4713 127.849 11.4399 127.629 11.4399C126.94 11.4399 126.313 11.5966 125.811 11.9414C125.279 12.2862 124.871 12.7876 124.589 13.4145L124.464 11.5967H121.518V23.6946H124.714V17.771C124.714 16.7681 124.965 16.0158 125.435 15.483C125.905 14.9502 126.595 14.6681 127.473 14.6681C127.661 14.6681 127.849 14.6681 128.005 14.6995C128.193 14.7308 128.35 14.7622 128.507 14.8249V11.5653V11.5653Z" fill="#61E212"></path><path d="M134.398 23.381C133.646 23.381 132.957 23.2243 132.299 22.9109C131.64 22.5975 131.076 22.19 130.606 21.6259C130.136 21.093 129.76 20.4349 129.478 19.714C129.196 18.9931 129.07 18.2096 129.07 17.3634C129.07 16.4858 129.196 15.7022 129.478 14.95C129.76 14.1978 130.136 13.571 130.637 13.0069C131.139 12.474 131.734 12.0353 132.393 11.7218C133.051 11.4084 133.772 11.2517 134.555 11.2517C135.307 11.2517 135.997 11.4084 136.624 11.7218C137.251 12.0353 137.752 12.474 138.16 13.0695L138.222 11.5965H141.137V22.2527C141.137 23.1929 140.98 24.0392 140.698 24.7914C140.416 25.5436 139.977 26.2018 139.445 26.7659C138.912 27.3301 138.254 27.7375 137.533 28.0509C136.78 28.333 135.966 28.4897 135.057 28.4897C134.179 28.4897 133.364 28.333 132.675 28.0509C131.954 27.7689 131.358 27.3614 130.825 26.8599C130.293 26.3585 129.885 25.763 129.572 25.1048L132.581 24.3526C132.863 24.7914 133.207 25.1361 133.615 25.3869C134.054 25.6376 134.524 25.763 135.057 25.763C135.652 25.763 136.154 25.6376 136.561 25.3555C137 25.0735 137.313 24.7287 137.564 24.2272C137.815 23.7571 137.909 23.1929 137.909 22.5348V21.5632C137.501 22.1273 137 22.5348 136.373 22.8482C135.84 23.2243 135.151 23.381 134.398 23.381ZM135.151 20.5289C135.715 20.5289 136.185 20.4035 136.624 20.1214C137.063 19.8394 137.407 19.4633 137.658 18.9618C137.909 18.4917 138.034 17.9275 138.034 17.332C138.034 16.7365 137.909 16.1724 137.658 15.7022C137.407 15.2321 137.063 14.8247 136.624 14.5426C136.185 14.2605 135.715 14.1352 135.151 14.1352C134.587 14.1352 134.116 14.2605 133.678 14.5426C133.239 14.8247 132.894 15.2008 132.643 15.7022C132.393 16.1724 132.267 16.7365 132.267 17.332C132.267 17.9275 132.393 18.4917 132.643 18.9618C132.894 19.4319 133.239 19.8394 133.678 20.1214C134.116 20.4035 134.618 20.5289 135.151 20.5289Z" fill="#61E212"></path></svg>